<svg width="50" height="50" viewBox="0 0 50 50" fill="none" xmlns="http://www.w3.org/2000/svg">
<path fill-rule="evenodd" clip-rule="evenodd" d="M31.6387 30.1489H33.2845L42.1178 39.0239C42.972 39.8781 42.972 41.2739 42.1178 42.1281C41.2637 42.9823 39.8678 42.9823 39.0137 42.1281L30.1595 33.2739V31.6281L29.597 31.0448C26.6803 33.5448 22.7012 34.8364 18.472 34.1281C12.6803 33.1489 8.05533 28.3156 7.347 22.4823C6.26367 13.6698 13.6803 6.25309 22.4928 7.33643C28.3262 8.04476 33.1595 12.6698 34.1387 18.4614C34.847 22.6906 33.5553 26.6698 31.0553 29.5864L31.6387 30.1489ZM11.4095 20.7739C11.4095 25.9614 15.597 30.1489 20.7845 30.1489C25.972 30.1489 30.1595 25.9614 30.1595 20.7739C30.1595 15.5864 25.972 11.3989 20.7845 11.3989C15.597 11.3989 11.4095 15.5864 11.4095 20.7739Z" fill="#6D7D8B"/>
</svg>
